<svg width="23" height="23" viewBox="0 0 23 23" fill="none" xmlns="http://www.w3.org/2000/svg">
<path d="M13.6071 11.5002L22.5629 2.54397C23.1457 1.96141 23.1457 1.01949 22.5629 0.436923C21.9803 -0.145641 21.0384 -0.145641 20.4559 0.436923L11.4999 9.39312L2.54413 0.436923C1.9613 -0.145641 1.01967 -0.145641 0.437118 0.436923C-0.145706 1.01949 -0.145706 1.96141 0.437118 2.54397L9.39286 11.5002L0.437118 20.4564C-0.145706 21.0389 -0.145706 21.9809 0.437118 22.5634C0.727439 22.854 1.10917 23 1.49062 23C1.87208 23 2.25353 22.854 2.54413 22.5634L11.4999 13.6072L20.4559 22.5634C20.7465 22.854 21.1279 23 21.5094 23C21.8908 23 22.2723 22.854 22.5629 22.5634C23.1457 21.9809 23.1457 21.0389 22.5629 20.4564L13.6071 11.5002Z" fill="#C4C4C4"/>
</svg>
