<svg width="101" height="101" viewBox="0 0 101 101" fill="none" xmlns="http://www.w3.org/2000/svg">
<g filter="url(#filter0_d)">
<circle cx="49.5" cy="48.5" r="35.5" fill="white"/>
</g>
<g clip-path="url(#clip0)">
<path d="M71.1547 57.9856L68.8396 51.2482C69.9555 48.967 70.5452 46.43 70.5492 43.8773C70.5561 39.4388 68.8388 35.2421 65.7137 32.0603C62.588 28.8779 58.4228 27.0865 53.9853 27.0162C49.3839 26.9435 45.0588 28.6937 41.8072 31.9452C38.6719 35.0805 36.9328 39.2139 36.8778 43.6308C33.7876 45.9575 31.9636 49.585 31.9696 53.4595C31.9725 55.2727 32.3806 57.075 33.1539 58.7048L31.5592 63.3454C31.2851 64.1431 31.4854 65.0093 32.0818 65.6058C32.5016 66.0256 33.0551 66.2491 33.6242 66.2491C33.8637 66.2491 34.106 66.2096 34.3423 66.1284L38.9829 64.5338C40.6127 65.3071 42.415 65.7152 44.2282 65.718C44.2347 65.718 44.2409 65.718 44.2475 65.718C48.1797 65.7179 51.8348 63.8469 54.153 60.6809C56.5654 60.6174 58.9522 60.0334 61.11 58.9779L67.8475 61.293C68.1283 61.3894 68.4162 61.4365 68.7007 61.4365C69.3771 61.4365 70.0348 61.1708 70.5337 60.6718C71.2425 59.963 71.4804 58.9337 71.1547 57.9856ZM44.2473 63.3455C44.2423 63.3455 44.2369 63.3455 44.2318 63.3455C42.627 63.343 41.0333 62.9474 39.6234 62.2014C39.3334 62.0481 38.9931 62.0216 38.6831 62.1281L33.9246 63.7632L35.5597 59.0048C35.6662 58.6947 35.6397 58.3543 35.4864 58.0645C34.7404 56.6545 34.3447 55.0609 34.3423 53.456C34.3383 50.8745 35.3425 48.4277 37.0986 46.5956C37.6722 50.0923 39.3387 53.3146 41.922 55.8519C44.4862 58.3705 47.7094 59.974 51.1871 60.4983C49.3508 62.3082 46.8754 63.3455 44.2473 63.3455ZM68.8559 58.9941C68.7884 59.0616 68.7083 59.08 68.6183 59.049L61.4056 56.5705C61.2803 56.5275 61.15 56.5062 61.0202 56.5062C60.8287 56.5062 60.638 56.5525 60.4654 56.6439C58.406 57.7333 56.0789 58.3111 53.7354 58.3147C53.7277 58.3147 53.7207 58.3147 53.713 58.3147C45.8607 58.3147 39.3747 51.9361 39.2503 44.0857C39.1876 40.132 40.6915 36.4162 43.4849 33.6229C46.2783 30.8295 49.9947 29.3261 53.9478 29.3884C61.8058 29.513 68.1888 36.011 68.1766 43.8736C68.173 46.2171 67.5952 48.5443 66.5059 50.6035C66.3525 50.8933 66.326 51.2337 66.4325 51.5438L68.9109 58.7565C68.9418 58.8468 68.9233 58.9268 68.8559 58.9941Z" fill="#AC949F"/>
<path d="M60.7799 37.5629H46.6453C45.9901 37.5629 45.459 38.0941 45.459 38.7492C45.459 39.4044 45.9902 39.9355 46.6453 39.9355H60.7799C61.4351 39.9355 61.9662 39.4043 61.9662 38.7492C61.9662 38.0941 61.4351 37.5629 60.7799 37.5629Z" fill="#AC949F"/>
<path d="M60.7799 42.4419H46.6453C45.9901 42.4419 45.459 42.9731 45.459 43.6282C45.459 44.2833 45.9902 44.8145 46.6453 44.8145H60.7799C61.4351 44.8145 61.9662 44.2833 61.9662 43.6282C61.9662 42.9731 61.4351 42.4419 60.7799 42.4419Z" fill="#AC949F"/>
<path d="M55.3391 47.3208H46.6453C45.9901 47.3208 45.459 47.8519 45.459 48.507C45.459 49.1622 45.9902 49.6933 46.6453 49.6933H55.3391C55.9943 49.6933 56.5254 49.1622 56.5254 48.507C56.5254 47.8519 55.9943 47.3208 55.3391 47.3208Z" fill="#AC949F"/>
</g>
<defs>
<filter id="filter0_d" x="0" y="0" width="101" height="101" filterUnits="userSpaceOnUse" color-interpolation-filters="sRGB">
<feFlood flood-opacity="0" result="BackgroundImageFix"/>
<feColorMatrix in="SourceAlpha" type="matrix" values="0 0 0 0 0 0 0 0 0 0 0 0 0 0 0 0 0 0 127 0"/>
<feOffset dx="1" dy="2"/>
<feGaussianBlur stdDeviation="7.5"/>
<feColorMatrix type="matrix" values="0 0 0 0 0 0 0 0 0 0 0 0 0 0 0 0 0 0 0.15 0"/>
<feBlend mode="normal" in2="BackgroundImageFix" result="effect1_dropShadow"/>
<feBlend mode="normal" in="SourceGraphic" in2="effect1_dropShadow" result="shape"/>
</filter>
<clipPath id="clip0">
<rect width="39.8596" height="39.8596" fill="white" transform="translate(31.4385 26.7018)"/>
</clipPath>
</defs>
</svg>
